<svg xmlns="http://www.w3.org/2000/svg" enable-background="new 0 0 24 24" viewBox="0 0 24 24"><polygon fill="#F0D91F" points="0 24 24 24 24 0 0 0 0 24"/><polygon fill="#D1BD1B" points="12 0 0 0 0 24 12 24 12 0"/><path d="M19.784 18.629c-.255-.961-2.251-1.185-3.616-2.205-1.38-.93-1.709-3.18-.569-4.471.39-.48 1.034-.84 1.71-1.005l.705-.089c1.365-.031 2.204.329 2.834 1.034.182.179.316.36.586.78-.721.449-.721.449-1.755 1.125-.226-.48-.586-.78-.976-.9-.6-.18-1.365.014-1.515.66-.059.195-.045.375.046.705.243.555 1.061.795 1.797 1.14 2.115.859 2.827 1.778 3.003 2.873l-.046-.067c.166.945-.045 1.56-.074 1.65-.781 2.67-5.131 2.76-6.871 1.005-.36-.42-.6-.63-.81-1.109l1.83-1.051c.495.75.944 1.156 1.755 1.336C18.914 20.174 20.024 19.799 19.784 18.629L19.784 18.629zM8.133 18.976c.017 0 .064.091.127.196.233.389.434.659.83.855.386.121 1.236.209 1.566-.48.2-.347.137-1.479.137-2.711 0-1.941.009-3.867.009-5.805h2.248l-.005.056c0 2.07.012 4.125 0 6.179.006 1.276.113 2.416-.397 3.346-.353.719-1.028 1.184-1.811 1.411-1.203.27-2.352.105-3.207-.405-.574-.345-1.019-.887-1.324-1.517L8.133 18.976 8.133 18.976z"/><path fill="#212121" d="M18.174 10.857c-.052 0-.106.001-.16.002l-.705.089c-.676.165-1.32.525-1.71 1.005-1.14 1.291-.811 3.541.569 4.471.012.009.025.018.037.028h4.724c-.451-.364-1.066-.711-1.898-1.049-.737-.345-1.554-.585-1.797-1.14-.091-.33-.105-.51-.046-.705.115-.494.589-.724 1.075-.724.149 0 .299.022.44.064.39.12.75.42.976.9 1.034-.676 1.034-.676 1.755-1.125-.27-.42-.404-.6-.586-.78C20.243 11.216 19.445 10.857 18.174 10.857L18.174 10.857zM13.051 11.031h-2.248c0 1.81-.008 3.61-.009 5.421h2.256c.006-1.783-.004-3.568-.004-5.365L13.051 11.031 13.051 11.031z"/></svg>